<svg width="375" height="57" viewBox="0 0 375 57" fill="none" xmlns="http://www.w3.org/2000/svg">
<path d="M16.584 56.32C13.256 56.32 10.0987 55.7653 7.112 54.656C4.168 53.504 1.88533 52.032 0.264 50.24L1.736 47.808C3.272 49.3867 5.36267 50.7307 8.008 51.84C10.696 52.9067 13.5333 53.44 16.52 53.44C19.5067 53.44 21.9387 53.056 23.816 52.288C25.736 51.4773 27.144 50.4107 28.04 49.088C28.9787 47.7653 29.448 46.2933 29.448 44.672C29.448 42.752 28.936 41.216 27.912 40.064C26.888 38.912 25.544 37.9947 23.88 37.312C22.216 36.6293 20.4027 36.0533 18.44 35.584C16.4773 35.1147 14.4933 34.624 12.488 34.112C10.4827 33.5573 8.648 32.8533 6.984 32C5.32 31.1467 3.976 29.9947 2.952 28.544C1.97067 27.0507 1.48 25.1307 1.48 22.784C1.48 20.6507 2.03467 18.688 3.144 16.896C4.25333 15.104 5.98133 13.6533 8.328 12.544C10.6747 11.4347 13.6827 10.88 17.352 10.88C19.8267 10.88 22.2587 11.2427 24.648 11.968C27.08 12.6933 29.1493 13.6747 30.856 14.912L29.64 17.536C27.7627 16.256 25.736 15.3173 23.56 14.72C21.4267 14.08 19.3573 13.76 17.352 13.76C14.4933 13.76 12.1253 14.1653 10.248 14.976C8.37067 15.7867 6.984 16.8747 6.088 18.24C5.192 19.5627 4.744 21.056 4.744 22.72C4.744 24.64 5.23467 26.176 6.216 27.328C7.24 28.48 8.584 29.3973 10.248 30.08C11.912 30.7627 13.7467 31.3387 15.752 31.808C17.7573 32.2773 19.7413 32.7893 21.704 33.344C23.6667 33.856 25.48 34.5387 27.144 35.392C28.808 36.2453 30.152 37.3973 31.176 38.848C32.2 40.2987 32.712 42.176 32.712 44.48C32.712 46.5707 32.136 48.5333 30.984 50.368C29.832 52.16 28.0613 53.6107 25.672 54.72C23.3253 55.7867 20.296 56.32 16.584 56.32ZM61.536 56.32C58.208 56.32 55.1147 55.7653 52.256 54.656C49.44 53.504 46.9653 51.904 44.832 49.856C42.7413 47.7653 41.12 45.3547 39.968 42.624C38.816 39.8507 38.24 36.8427 38.24 33.6C38.24 30.3573 38.816 27.3707 39.968 24.64C41.12 21.8667 42.7413 19.456 44.832 17.408C46.9653 15.3173 49.44 13.7173 52.256 12.608C55.1147 11.456 58.208 10.88 61.536 10.88C64.864 10.88 67.936 11.456 70.752 12.608C73.6107 13.7173 76.0853 15.296 78.176 17.344C80.2667 19.392 81.888 21.8027 83.04 24.576C84.2347 27.3067 84.832 30.3147 84.832 33.6C84.832 36.8853 84.2347 39.9147 83.04 42.688C81.888 45.4187 80.2667 47.808 78.176 49.856C76.0853 51.904 73.6107 53.504 70.752 54.656C67.936 55.7653 64.864 56.32 61.536 56.32ZM61.536 53.312C64.3947 53.312 67.04 52.8213 69.472 51.84C71.904 50.8587 74.016 49.472 75.808 47.68C77.6 45.888 78.9867 43.7973 79.968 41.408C80.992 39.0187 81.504 36.416 81.504 33.6C81.504 30.7413 80.992 28.1387 79.968 25.792C78.9867 23.4027 77.6 21.312 75.808 19.52C74.016 17.728 71.904 16.3413 69.472 15.36C67.04 14.3787 64.3947 13.888 61.536 13.888C58.6773 13.888 56.032 14.3787 53.6 15.36C51.168 16.3413 49.0347 17.728 47.2 19.52C45.408 21.312 44 23.4027 42.976 25.792C41.9947 28.1387 41.504 30.7413 41.504 33.6C41.504 36.416 41.9947 39.0187 42.976 41.408C44 43.7973 45.408 45.888 47.2 47.68C49.0347 49.472 51.168 50.8587 53.6 51.84C56.032 52.8213 58.6773 53.312 61.536 53.312ZM94.873 56V11.2H113.561C118.382 11.2 122.158 12.1813 124.889 14.144C127.62 16.1067 128.985 18.944 128.985 22.656C128.985 25.088 128.409 27.136 127.257 28.8C126.105 30.464 124.505 31.7227 122.457 32.576C120.452 33.3867 118.19 33.792 115.673 33.792L116.825 32.512C119.897 32.512 122.521 32.96 124.697 33.856C126.873 34.752 128.516 36.0533 129.625 37.76C130.777 39.4667 131.353 41.6 131.353 44.16C131.353 47.9147 129.988 50.8373 127.257 52.928C124.526 54.976 120.388 56 114.841 56H94.873ZM98.137 53.184H114.841C119.15 53.184 122.436 52.4587 124.697 51.008C126.958 49.5147 128.089 47.1467 128.089 43.904C128.089 40.704 126.958 38.3787 124.697 36.928C122.436 35.4347 119.15 34.688 114.841 34.688H97.753V31.872H113.433C117.316 31.872 120.324 31.1253 122.457 29.632C124.59 28.1387 125.657 25.8987 125.657 22.912C125.657 19.968 124.59 17.7493 122.457 16.256C120.324 14.7627 117.316 14.016 113.433 14.016H98.137V53.184ZM141.718 56V11.2H157.782C161.537 11.2 164.758 11.7973 167.446 12.992C170.134 14.1867 172.203 15.9147 173.654 18.176C175.105 20.3947 175.83 23.104 175.83 26.304C175.83 29.4187 175.105 32.1067 173.654 34.368C172.203 36.5867 170.134 38.3147 167.446 39.552C164.758 40.7467 161.537 41.344 157.782 41.344H143.51L144.982 39.808V56H141.718ZM172.822 56L161.174 39.744H164.886L176.534 56H172.822ZM144.982 40L143.51 38.464H157.782C162.603 38.464 166.251 37.3973 168.726 35.264C171.243 33.1307 172.502 30.144 172.502 26.304C172.502 22.4213 171.243 19.4347 168.726 17.344C166.251 15.2107 162.603 14.144 157.782 14.144H143.51L144.982 12.544V40ZM189.381 31.808H213.637V34.688H189.381V31.808ZM189.765 53.056H217.413V56H186.501V11.2H216.453V14.144H189.765V53.056ZM243.191 56V11.2H245.943L277.879 51.968H276.407V11.2H279.671V56H276.983L244.983 15.232H246.455V56H243.191ZM313.044 56.32C309.716 56.32 306.622 55.7653 303.764 54.656C300.948 53.504 298.473 51.904 296.34 49.856C294.249 47.7653 292.628 45.3547 291.476 42.624C290.324 39.8507 289.748 36.8427 289.748 33.6C289.748 30.3573 290.324 27.3707 291.476 24.64C292.628 21.8667 294.249 19.456 296.34 17.408C298.473 15.3173 300.948 13.7173 303.764 12.608C306.622 11.456 309.716 10.88 313.044 10.88C316.372 10.88 319.444 11.456 322.26 12.608C325.118 13.7173 327.593 15.296 329.684 17.344C331.774 19.392 333.396 21.8027 334.548 24.576C335.742 27.3067 336.34 30.3147 336.34 33.6C336.34 36.8853 335.742 39.9147 334.548 42.688C333.396 45.4187 331.774 47.808 329.684 49.856C327.593 51.904 325.118 53.504 322.26 54.656C319.444 55.7653 316.372 56.32 313.044 56.32ZM313.044 53.312C315.902 53.312 318.548 52.8213 320.98 51.84C323.412 50.8587 325.524 49.472 327.316 47.68C329.108 45.888 330.494 43.7973 331.476 41.408C332.5 39.0187 333.012 36.416 333.012 33.6C333.012 30.7413 332.5 28.1387 331.476 25.792C330.494 23.4027 329.108 21.312 327.316 19.52C325.524 17.728 323.412 16.3413 320.98 15.36C318.548 14.3787 315.902 13.888 313.044 13.888C310.185 13.888 307.54 14.3787 305.108 15.36C302.676 16.3413 300.542 17.728 298.708 19.52C296.916 21.312 295.508 23.4027 294.484 25.792C293.502 28.1387 293.012 30.7413 293.012 33.6C293.012 36.416 293.502 39.0187 294.484 41.408C295.508 43.7973 296.916 45.888 298.708 47.68C300.542 49.472 302.676 50.8587 305.108 51.84C307.54 52.8213 310.185 53.312 313.044 53.312ZM309.396 7.552L318.292 -3.8147e-06H322.9L312.852 7.552H309.396ZM358.157 56.32C354.829 56.32 351.671 55.7653 348.685 54.656C345.741 53.504 343.458 52.032 341.837 50.24L343.309 47.808C344.845 49.3867 346.935 50.7307 349.581 51.84C352.269 52.9067 355.106 53.44 358.093 53.44C361.079 53.44 363.511 53.056 365.389 52.288C367.309 51.4773 368.717 50.4107 369.613 49.088C370.551 47.7653 371.021 46.2933 371.021 44.672C371.021 42.752 370.509 41.216 369.485 40.064C368.461 38.912 367.117 37.9947 365.453 37.312C363.789 36.6293 361.975 36.0533 360.013 35.584C358.05 35.1147 356.066 34.624 354.061 34.112C352.055 33.5573 350.221 32.8533 348.557 32C346.893 31.1467 345.549 29.9947 344.525 28.544C343.543 27.0507 343.053 25.1307 343.053 22.784C343.053 20.6507 343.607 18.688 344.717 16.896C345.826 15.104 347.554 13.6533 349.901 12.544C352.247 11.4347 355.255 10.88 358.925 10.88C361.399 10.88 363.831 11.2427 366.221 11.968C368.653 12.6933 370.722 13.6747 372.429 14.912L371.213 17.536C369.335 16.256 367.309 15.3173 365.133 14.72C362.999 14.08 360.93 13.76 358.925 13.76C356.066 13.76 353.698 14.1653 351.821 14.976C349.943 15.7867 348.557 16.8747 347.661 18.24C346.765 19.5627 346.317 21.056 346.317 22.72C346.317 24.64 346.807 26.176 347.789 27.328C348.813 28.48 350.157 29.3973 351.821 30.08C353.485 30.7627 355.319 31.3387 357.325 31.808C359.33 32.2773 361.314 32.7893 363.277 33.344C365.239 33.856 367.053 34.5387 368.717 35.392C370.381 36.2453 371.725 37.3973 372.749 38.848C373.773 40.2987 374.285 42.176 374.285 44.48C374.285 46.5707 373.709 48.5333 372.557 50.368C371.405 52.16 369.634 53.6107 367.245 54.72C364.898 55.7867 361.869 56.32 358.157 56.32Z" fill="white"/>
</svg>
