<svg width="979" height="47" viewBox="0 0 979 47" fill="none" xmlns="http://www.w3.org/2000/svg">
<path d="M0.808001 46V1.2H16.872C20.6267 1.2 23.848 1.79733 26.536 2.992C29.224 4.18666 31.2933 5.91466 32.744 8.176C34.1947 10.3947 34.92 13.104 34.92 16.304C34.92 19.4187 34.1947 22.1067 32.744 24.368C31.2933 26.6293 29.224 28.3573 26.536 29.552C23.848 30.7467 20.6267 31.344 16.872 31.344H2.6L4.072 29.808V46H0.808001ZM4.072 30L2.6 28.4H16.872C21.6933 28.4 25.3413 27.3547 27.816 25.264C30.3333 23.1307 31.592 20.144 31.592 16.304C31.592 12.4213 30.3333 9.43467 27.816 7.344C25.3413 5.21066 21.6933 4.144 16.872 4.144H2.6L4.072 2.544V30ZM64.286 46.32C60.958 46.32 57.8647 45.7653 55.006 44.656C52.19 43.504 49.7153 41.904 47.582 39.856C45.4913 37.7653 43.87 35.3547 42.718 32.624C41.566 29.8507 40.99 26.8427 40.99 23.6C40.99 20.3573 41.566 17.3707 42.718 14.64C43.87 11.8667 45.4913 9.456 47.582 7.408C49.7153 5.31733 52.19 3.71733 55.006 2.608C57.8647 1.456 60.958 0.879997 64.286 0.879997C67.614 0.879997 70.686 1.456 73.502 2.608C76.3607 3.71733 78.8353 5.296 80.926 7.344C83.0167 9.392 84.638 11.8027 85.79 14.576C86.9847 17.3067 87.582 20.3147 87.582 23.6C87.582 26.8853 86.9847 29.9147 85.79 32.688C84.638 35.4187 83.0167 37.808 80.926 39.856C78.8353 41.904 76.3607 43.504 73.502 44.656C70.686 45.7653 67.614 46.32 64.286 46.32ZM64.286 43.312C67.1447 43.312 69.79 42.8213 72.222 41.84C74.654 40.8587 76.766 39.472 78.558 37.68C80.35 35.888 81.7367 33.7973 82.718 31.408C83.742 29.0187 84.254 26.416 84.254 23.6C84.254 20.7413 83.742 18.1387 82.718 15.792C81.7367 13.4027 80.35 11.312 78.558 9.52C76.766 7.728 74.654 6.34133 72.222 5.36C69.79 4.37866 67.1447 3.888 64.286 3.888C61.4273 3.888 58.782 4.37866 56.35 5.36C53.918 6.34133 51.7847 7.728 49.95 9.52C48.158 11.312 46.75 13.4027 45.726 15.792C44.7447 18.1387 44.254 20.7413 44.254 23.6C44.254 26.416 44.7447 29.0187 45.726 31.408C46.75 33.7973 48.158 35.888 49.95 37.68C51.7847 39.472 53.918 40.8587 56.35 41.84C58.782 42.8213 61.4273 43.312 64.286 43.312ZM97.623 46V1.2H113.687C117.442 1.2 120.663 1.79733 123.351 2.992C126.039 4.18666 128.108 5.91466 129.559 8.176C131.01 10.3947 131.735 13.104 131.735 16.304C131.735 19.4187 131.01 22.1067 129.559 24.368C128.108 26.5867 126.039 28.3147 123.351 29.552C120.663 30.7467 117.442 31.344 113.687 31.344H99.415L100.887 29.808V46H97.623ZM128.727 46L117.079 29.744H120.791L132.439 46H128.727ZM100.887 30L99.415 28.464H113.687C118.508 28.464 122.156 27.3973 124.631 25.264C127.148 23.1307 128.407 20.144 128.407 16.304C128.407 12.4213 127.148 9.43467 124.631 7.344C122.156 5.21066 118.508 4.144 113.687 4.144H99.415L100.887 2.544V30ZM166.139 46V4.144H150.011V1.2H185.531V4.144H169.403V46H166.139ZM192.346 46V1.2H208.41C212.164 1.2 215.386 1.79733 218.074 2.992C220.762 4.18666 222.831 5.91466 224.282 8.176C225.732 10.3947 226.458 13.104 226.458 16.304C226.458 19.4187 225.732 22.1067 224.282 24.368C222.831 26.5867 220.762 28.3147 218.074 29.552C215.386 30.7467 212.164 31.344 208.41 31.344H194.138L195.61 29.808V46H192.346ZM223.45 46L211.802 29.744H215.514L227.162 46H223.45ZM195.61 30L194.138 28.464H208.41C213.231 28.464 216.879 27.3973 219.354 25.264C221.871 23.1307 223.13 20.144 223.13 16.304C223.13 12.4213 221.871 9.43467 219.354 7.344C216.879 5.21066 213.231 4.144 208.41 4.144H194.138L195.61 2.544V30ZM229.64 46L250.248 1.2H253.512L274.12 46H270.6L251.144 3.248H252.552L233.16 46H229.64ZM237.192 33.392L238.28 30.64H265.096L266.184 33.392H237.192ZM292.749 46.32C289.421 46.32 286.264 45.7653 283.277 44.656C280.333 43.504 278.05 42.032 276.429 40.24L277.901 37.808C279.437 39.3867 281.528 40.7307 284.173 41.84C286.861 42.9067 289.698 43.44 292.685 43.44C295.672 43.44 298.104 43.056 299.981 42.288C301.901 41.4773 303.309 40.4107 304.205 39.088C305.144 37.7653 305.613 36.2933 305.613 34.672C305.613 32.752 305.101 31.216 304.077 30.064C303.053 28.912 301.709 27.9947 300.045 27.312C298.381 26.6293 296.568 26.0533 294.605 25.584C292.642 25.1147 290.658 24.624 288.653 24.112C286.648 23.5573 284.813 22.8533 283.149 22C281.485 21.1467 280.141 19.9947 279.117 18.544C278.136 17.0507 277.645 15.1307 277.645 12.784C277.645 10.6507 278.2 8.688 279.309 6.896C280.418 5.104 282.146 3.65333 284.493 2.544C286.84 1.43466 289.848 0.879997 293.517 0.879997C295.992 0.879997 298.424 1.24266 300.813 1.968C303.245 2.69333 305.314 3.67467 307.021 4.912L305.805 7.536C303.928 6.256 301.901 5.31733 299.725 4.72C297.592 4.08 295.522 3.76 293.517 3.76C290.658 3.76 288.29 4.16533 286.413 4.976C284.536 5.78666 283.149 6.87466 282.253 8.24C281.357 9.56267 280.909 11.056 280.909 12.72C280.909 14.64 281.4 16.176 282.381 17.328C283.405 18.48 284.749 19.3973 286.413 20.08C288.077 20.7627 289.912 21.3387 291.917 21.808C293.922 22.2773 295.906 22.7893 297.869 23.344C299.832 23.856 301.645 24.5387 303.309 25.392C304.973 26.2453 306.317 27.3973 307.341 28.848C308.365 30.2987 308.877 32.176 308.877 34.48C308.877 36.5707 308.301 38.5333 307.149 40.368C305.997 42.16 304.226 43.6107 301.837 44.72C299.49 45.7867 296.461 46.32 292.749 46.32ZM333.851 46V1.2H351.579C356.315 1.2 360.475 2.16 364.059 4.08C367.643 6 370.416 8.64533 372.379 12.016C374.384 15.3867 375.387 19.248 375.387 23.6C375.387 27.952 374.384 31.8133 372.379 35.184C370.416 38.5547 367.643 41.2 364.059 43.12C360.475 45.04 356.315 46 351.579 46H333.851ZM337.115 43.056H351.323C355.547 43.056 359.216 42.224 362.331 40.56C365.445 38.896 367.856 36.6133 369.563 33.712C371.269 30.768 372.123 27.3973 372.123 23.6C372.123 19.8027 371.269 16.4533 369.563 13.552C367.856 10.608 365.445 8.304 362.331 6.64C359.216 4.976 355.547 4.144 351.323 4.144H337.115V43.056ZM404.454 46.32C401.126 46.32 398.032 45.7653 395.174 44.656C392.358 43.504 389.883 41.904 387.75 39.856C385.659 37.7653 384.038 35.3547 382.886 32.624C381.734 29.8507 381.158 26.8427 381.158 23.6C381.158 20.3573 381.734 17.3707 382.886 14.64C384.038 11.8667 385.659 9.456 387.75 7.408C389.883 5.31733 392.358 3.71733 395.174 2.608C398.032 1.456 401.126 0.879997 404.454 0.879997C407.782 0.879997 410.854 1.456 413.67 2.608C416.528 3.71733 419.003 5.296 421.094 7.344C423.184 9.392 424.806 11.8027 425.958 14.576C427.152 17.3067 427.75 20.3147 427.75 23.6C427.75 26.8853 427.152 29.9147 425.958 32.688C424.806 35.4187 423.184 37.808 421.094 39.856C419.003 41.904 416.528 43.504 413.67 44.656C410.854 45.7653 407.782 46.32 404.454 46.32ZM404.454 43.312C407.312 43.312 409.958 42.8213 412.39 41.84C414.822 40.8587 416.934 39.472 418.726 37.68C420.518 35.888 421.904 33.7973 422.886 31.408C423.91 29.0187 424.422 26.416 424.422 23.6C424.422 20.7413 423.91 18.1387 422.886 15.792C421.904 13.4027 420.518 11.312 418.726 9.52C416.934 7.728 414.822 6.34133 412.39 5.36C409.958 4.37866 407.312 3.888 404.454 3.888C401.595 3.888 398.95 4.37866 396.518 5.36C394.086 6.34133 391.952 7.728 390.118 9.52C388.326 11.312 386.918 13.4027 385.894 15.792C384.912 18.1387 384.422 20.7413 384.422 23.6C384.422 26.416 384.912 29.0187 385.894 31.408C386.918 33.7973 388.326 35.888 390.118 37.68C391.952 39.472 394.086 40.8587 396.518 41.84C398.95 42.8213 401.595 43.312 404.454 43.312ZM461.524 46V4.144H445.396V1.2H480.916V4.144H464.788V46H461.524ZM490.61 21.808H514.866V24.688H490.61V21.808ZM490.994 43.056H518.642V46H487.73V1.2H517.682V4.144H490.994V43.056ZM529.263 46V1.2H532.015L552.815 37.104H551.343L572.079 1.2H574.767L574.831 46H571.631L571.567 6.128H572.463L552.815 40.048H551.215L531.503 6.128H532.463V46H529.263ZM589.17 46V1.2H605.234C608.989 1.2 612.21 1.79733 614.898 2.992C617.586 4.18666 619.656 5.91466 621.106 8.176C622.557 10.3947 623.282 13.104 623.282 16.304C623.282 19.4187 622.557 22.1067 621.106 24.368C619.656 26.6293 617.586 28.3573 614.898 29.552C612.21 30.7467 608.989 31.344 605.234 31.344H590.962L592.434 29.808V46H589.17ZM592.434 30L590.962 28.4H605.234C610.056 28.4 613.704 27.3547 616.178 25.264C618.696 23.1307 619.954 20.144 619.954 16.304C619.954 12.4213 618.696 9.43467 616.178 7.344C613.704 5.21066 610.056 4.144 605.234 4.144H590.962L592.434 2.544V30ZM633.016 46V1.2H636.28V43.056H662.072V46H633.016ZM687.306 46.32C683.978 46.32 680.885 45.7653 678.026 44.656C675.21 43.504 672.735 41.904 670.602 39.856C668.511 37.7653 666.89 35.3547 665.738 32.624C664.586 29.8507 664.01 26.8427 664.01 23.6C664.01 20.3573 664.586 17.3707 665.738 14.64C666.89 11.8667 668.511 9.456 670.602 7.408C672.735 5.31733 675.21 3.71733 678.026 2.608C680.885 1.456 683.978 0.879997 687.306 0.879997C690.634 0.879997 693.706 1.456 696.522 2.608C699.381 3.71733 701.855 5.296 703.946 7.344C706.037 9.392 707.658 11.8027 708.81 14.576C710.005 17.3067 710.602 20.3147 710.602 23.6C710.602 26.8853 710.005 29.9147 708.81 32.688C707.658 35.4187 706.037 37.808 703.946 39.856C701.855 41.904 699.381 43.504 696.522 44.656C693.706 45.7653 690.634 46.32 687.306 46.32ZM687.306 43.312C690.165 43.312 692.81 42.8213 695.242 41.84C697.674 40.8587 699.786 39.472 701.578 37.68C703.37 35.888 704.757 33.7973 705.738 31.408C706.762 29.0187 707.274 26.416 707.274 23.6C707.274 20.7413 706.762 18.1387 705.738 15.792C704.757 13.4027 703.37 11.312 701.578 9.52C699.786 7.728 697.674 6.34133 695.242 5.36C692.81 4.37866 690.165 3.888 687.306 3.888C684.447 3.888 681.802 4.37866 679.37 5.36C676.938 6.34133 674.805 7.728 672.97 9.52C671.178 11.312 669.77 13.4027 668.746 15.792C667.765 18.1387 667.274 20.7413 667.274 23.6C667.274 26.416 667.765 29.0187 668.746 31.408C669.77 33.7973 671.178 35.888 672.97 37.68C674.805 39.472 676.938 40.8587 679.37 41.84C681.802 42.8213 684.447 43.312 687.306 43.312ZM735.8 46V1.2H753.528C758.264 1.2 762.424 2.16 766.008 4.08C769.592 6 772.366 8.64533 774.328 12.016C776.334 15.3867 777.336 19.248 777.336 23.6C777.336 27.952 776.334 31.8133 774.328 35.184C772.366 38.5547 769.592 41.2 766.008 43.12C762.424 45.04 758.264 46 753.528 46H735.8ZM739.064 43.056H753.272C757.496 43.056 761.166 42.224 764.28 40.56C767.395 38.896 769.806 36.6133 771.512 33.712C773.219 30.768 774.072 27.3973 774.072 23.6C774.072 19.8027 773.219 16.4533 771.512 13.552C769.806 10.608 767.395 8.304 764.28 6.64C761.166 4.976 757.496 4.144 753.272 4.144H739.064V43.056ZM790.276 21.808H814.532V24.688H790.276V21.808ZM790.66 43.056H818.308V46H787.396V1.2H817.348V4.144H790.66V43.056ZM844.086 46V1.2H847.35V43.056H873.142V46H844.086ZM898.376 46.32C895.048 46.32 891.955 45.7653 889.096 44.656C886.28 43.504 883.805 41.904 881.672 39.856C879.581 37.7653 877.96 35.3547 876.808 32.624C875.656 29.8507 875.08 26.8427 875.08 23.6C875.08 20.3573 875.656 17.3707 876.808 14.64C877.96 11.8667 879.581 9.456 881.672 7.408C883.805 5.31733 886.28 3.71733 889.096 2.608C891.955 1.456 895.048 0.879997 898.376 0.879997C901.704 0.879997 904.776 1.456 907.592 2.608C910.451 3.71733 912.925 5.296 915.016 7.344C917.107 9.392 918.728 11.8027 919.88 14.576C921.075 17.3067 921.672 20.3147 921.672 23.6C921.672 26.8853 921.075 29.9147 919.88 32.688C918.728 35.4187 917.107 37.808 915.016 39.856C912.925 41.904 910.451 43.504 907.592 44.656C904.776 45.7653 901.704 46.32 898.376 46.32ZM898.376 43.312C901.235 43.312 903.88 42.8213 906.312 41.84C908.744 40.8587 910.856 39.472 912.648 37.68C914.44 35.888 915.827 33.7973 916.808 31.408C917.832 29.0187 918.344 26.416 918.344 23.6C918.344 20.7413 917.832 18.1387 916.808 15.792C915.827 13.4027 914.44 11.312 912.648 9.52C910.856 7.728 908.744 6.34133 906.312 5.36C903.88 4.37866 901.235 3.888 898.376 3.888C895.517 3.888 892.872 4.37866 890.44 5.36C888.008 6.34133 885.875 7.728 884.04 9.52C882.248 11.312 880.84 13.4027 879.816 15.792C878.835 18.1387 878.344 20.7413 878.344 23.6C878.344 26.416 878.835 29.0187 879.816 31.408C880.84 33.7973 882.248 35.888 884.04 37.68C885.875 39.472 888.008 40.8587 890.44 41.84C892.872 42.8213 895.517 43.312 898.376 43.312ZM934.529 34.672L934.401 30.576L962.945 1.2H966.913L946.945 21.872L945.089 23.856L934.529 34.672ZM931.713 46V1.2H934.977V46H931.713ZM964.289 46L944.129 22.96L946.369 20.592L968.257 46H964.289ZM975.433 46V1.2H978.697V46H975.433Z" fill="white"/>
</svg>
