<svg width="520" height="324" viewBox="0 0 520 324" fill="none" xmlns="http://www.w3.org/2000/svg">
<g clip-path="url(#clip0_92_12)">
<path d="M76.4444 3.96C76.0977 7.25333 75.8377 10.46 75.6644 13.58C75.5777 16.6133 75.5344 18.9533 75.5344 20.6C75.5344 22.68 75.5777 24.63 75.6644 26.45C75.751 28.27 75.8377 29.8733 75.9244 31.26H72.9344C72.3277 25.1933 71.5044 20.4267 70.4644 16.96C69.4244 13.4067 67.6044 10.85 65.0044 9.28999C62.4044 7.72999 58.3744 6.94999 52.9144 6.94999H45.8944V80.92C45.8944 84.3867 46.1977 86.9867 46.8044 88.72C47.4977 90.4533 48.7977 91.6233 50.7044 92.23C52.611 92.8367 55.3844 93.2267 59.0244 93.4V96C56.771 95.8267 53.911 95.74 50.4444 95.74C46.9777 95.6533 43.4677 95.61 39.9144 95.61C36.0144 95.61 32.331 95.6533 28.8644 95.74C25.4844 95.74 22.7544 95.8267 20.6744 96V93.4C24.3144 93.2267 27.0877 92.8367 28.9944 92.23C30.901 91.6233 32.1577 90.4533 32.7644 88.72C33.4577 86.9867 33.8044 84.3867 33.8044 80.92V6.94999H26.7844C21.411 6.94999 17.381 7.72999 14.6944 9.28999C12.0944 10.85 10.2744 13.4067 9.23438 16.96C8.19438 20.4267 7.37104 25.1933 6.76438 31.26H3.77437C3.94771 29.8733 4.03438 28.27 4.03438 26.45C4.12104 24.63 4.16438 22.68 4.16438 20.6C4.16438 18.9533 4.07771 16.6133 3.90438 13.58C3.81771 10.46 3.60104 7.25333 3.25438 3.96C6.89438 4.04666 10.8377 4.13333 15.0844 4.22C19.4177 4.30666 23.751 4.34999 28.0844 4.34999C32.4177 4.34999 36.361 4.34999 39.9144 4.34999C43.4677 4.34999 47.3677 4.34999 51.6144 4.34999C55.9477 4.34999 60.281 4.30666 64.6144 4.22C68.9477 4.13333 72.891 4.04666 76.4444 3.96ZM150.557 3.96C150.21 6.99333 149.95 9.93999 149.777 12.8C149.69 15.66 149.647 17.8267 149.647 19.3C149.647 20.86 149.69 22.3767 149.777 23.85C149.863 25.2367 149.95 26.4067 150.037 27.36H147.047C146.527 22.2467 145.79 18.2167 144.837 15.27C143.883 12.2367 142.237 10.1133 139.897 8.9C137.643 7.59999 134.22 6.94999 129.627 6.94999H118.837C115.89 6.94999 113.637 7.20999 112.077 7.73C110.603 8.16333 109.607 9.16 109.087 10.72C108.567 12.1933 108.307 14.5333 108.307 17.74V82.22C108.307 85.34 108.567 87.68 109.087 89.24C109.607 90.8 110.603 91.84 112.077 92.36C113.637 92.7933 115.89 93.01 118.837 93.01H128.327C133.787 93.01 137.903 92.2733 140.677 90.8C143.537 89.3267 145.573 86.9433 146.787 83.65C148.087 80.27 149.04 75.72 149.647 70H152.637C152.377 72.34 152.247 75.46 152.247 79.36C152.247 81.0067 152.29 83.39 152.377 86.51C152.55 89.5433 152.81 92.7067 153.157 96C148.737 95.8267 143.753 95.74 138.207 95.74C132.66 95.6533 127.72 95.61 123.387 95.61C121.48 95.61 119.01 95.61 115.977 95.61C113.03 95.61 109.823 95.6533 106.357 95.74C102.89 95.74 99.3799 95.7833 95.8266 95.87C92.2732 95.87 88.8932 95.9133 85.6866 96V93.4C88.6332 93.2267 90.8432 92.88 92.3166 92.36C93.8766 91.84 94.9166 90.8 95.4366 89.24C95.9566 87.68 96.2166 85.34 96.2166 82.22V17.74C96.2166 14.5333 95.9566 12.1933 95.4366 10.72C94.9166 9.16 93.8766 8.12 92.3166 7.6C90.8432 6.99333 88.6332 6.64666 85.6866 6.56V3.96C88.8932 4.04666 92.2732 4.13333 95.8266 4.22C99.3799 4.22 102.89 4.26333 106.357 4.34999C109.823 4.34999 113.03 4.34999 115.977 4.34999C119.01 4.34999 121.48 4.34999 123.387 4.34999C127.373 4.34999 131.88 4.34999 136.907 4.34999C142.02 4.26333 146.57 4.13333 150.557 3.96ZM128.197 48.42C128.197 48.42 128.197 48.8533 128.197 49.72C128.197 50.5867 128.197 51.02 128.197 51.02H104.407C104.407 51.02 104.407 50.5867 104.407 49.72C104.407 48.8533 104.407 48.42 104.407 48.42H128.197ZM131.967 31.26C131.62 36.2 131.447 39.97 131.447 42.57C131.533 45.17 131.577 47.5533 131.577 49.72C131.577 51.8867 131.62 54.27 131.707 56.87C131.793 59.47 132.01 63.24 132.357 68.18H129.367C129.02 65.4067 128.587 62.72 128.067 60.12C127.633 57.4333 126.593 55.2667 124.947 53.62C123.387 51.8867 120.7 51.02 116.887 51.02V48.42C119.747 48.42 121.913 47.8567 123.387 46.73C124.947 45.5167 126.073 44 126.767 42.18C127.46 40.36 127.937 38.4967 128.197 36.59C128.457 34.5967 128.717 32.82 128.977 31.26H131.967ZM267.215 3.96V6.56C264.269 6.64666 262.015 6.99333 260.455 7.6C258.982 8.12 257.985 9.16 257.465 10.72C256.945 12.1933 256.685 14.5333 256.685 17.74V82.22C256.685 85.34 256.945 87.68 257.465 89.24C257.985 90.8 258.982 91.84 260.455 92.36C262.015 92.88 264.269 93.2267 267.215 93.4V96C265.222 95.8267 262.709 95.74 259.675 95.74C256.729 95.6533 253.739 95.61 250.705 95.61C247.325 95.61 244.162 95.6533 241.215 95.74C238.269 95.74 235.885 95.8267 234.065 96V93.4C237.012 93.2267 239.222 92.88 240.695 92.36C242.255 91.84 243.295 90.8 243.815 89.24C244.335 87.68 244.595 85.34 244.595 82.22V10.72L245.115 11.11L213.265 96.65H211.185L178.425 12.28V80.92C178.425 84.04 178.685 86.51 179.205 88.33C179.812 90.0633 180.939 91.32 182.585 92.1C184.319 92.7933 186.875 93.2267 190.255 93.4V96C188.695 95.8267 186.659 95.74 184.145 95.74C181.632 95.6533 179.249 95.61 176.995 95.61C174.829 95.61 172.619 95.6533 170.365 95.74C168.199 95.74 166.379 95.8267 164.905 96V93.4C167.852 93.2267 170.062 92.7933 171.535 92.1C173.095 91.32 174.135 90.0633 174.655 88.33C175.175 86.51 175.435 84.04 175.435 80.92V17.74C175.435 14.5333 175.175 12.1933 174.655 10.72C174.135 9.16 173.095 8.12 171.535 7.6C170.062 6.99333 167.852 6.64666 164.905 6.56V3.96C166.379 4.04666 168.199 4.13333 170.365 4.22C172.619 4.30666 174.829 4.34999 176.995 4.34999C178.902 4.34999 180.852 4.30666 182.845 4.22C184.925 4.13333 186.659 4.04666 188.045 3.96L217.555 81.7L215.345 82.74L244.595 4.34999C245.635 4.34999 246.632 4.34999 247.585 4.34999C248.625 4.34999 249.665 4.34999 250.705 4.34999C253.739 4.34999 256.729 4.30666 259.675 4.22C262.709 4.13333 265.222 4.04666 267.215 3.96ZM278.148 3.96C279.968 4.04666 282.351 4.13333 285.298 4.22C288.244 4.30666 291.148 4.34999 294.008 4.34999C298.081 4.34999 301.981 4.30666 305.708 4.22C309.434 4.13333 312.078 4.09 313.638 4.09C324.124 4.09 331.968 6.47333 337.168 11.24C342.368 16.0067 344.968 22.16 344.968 29.7C344.968 32.82 344.448 36.1133 343.408 39.58C342.368 42.96 340.548 46.1233 337.948 49.07C335.434 51.93 331.968 54.27 327.548 56.09C323.128 57.91 317.538 58.82 310.778 58.82H298.298V56.22H309.478C315.631 56.22 320.311 55.05 323.518 52.71C326.811 50.37 329.021 47.2933 330.148 43.48C331.361 39.6667 331.968 35.55 331.968 31.13C331.968 22.8967 330.321 16.7433 327.028 12.67C323.821 8.59666 318.274 6.56 310.388 6.56C306.401 6.56 303.801 7.29666 302.588 8.77C301.374 10.2433 300.768 13.2333 300.768 17.74V82.22C300.768 85.34 301.071 87.68 301.678 89.24C302.371 90.8 303.671 91.84 305.578 92.36C307.484 92.88 310.258 93.2267 313.898 93.4V96C311.644 95.8267 308.784 95.74 305.318 95.74C301.851 95.6533 298.341 95.61 294.788 95.61C291.408 95.61 288.244 95.6533 285.298 95.74C282.351 95.74 279.968 95.8267 278.148 96V93.4C281.094 93.2267 283.304 92.88 284.778 92.36C286.338 91.84 287.378 90.8 287.898 89.24C288.418 87.68 288.678 85.34 288.678 82.22V17.74C288.678 14.5333 288.418 12.1933 287.898 10.72C287.378 9.16 286.338 8.12 284.778 7.6C283.304 6.99333 281.094 6.64666 278.148 6.56V3.96ZM387.342 3.96V6.56C384.396 6.64666 382.142 6.99333 380.582 7.6C379.109 8.12 378.112 9.16 377.592 10.72C377.072 12.1933 376.812 14.5333 376.812 17.74V82.22C376.812 85.34 377.072 87.68 377.592 89.24C378.112 90.8 379.109 91.84 380.582 92.36C382.142 92.7933 384.396 93.01 387.342 93.01H396.832C400.906 93.01 404.199 92.5767 406.712 91.71C409.312 90.8433 411.349 89.5 412.822 87.68C414.382 85.7733 415.552 83.26 416.332 80.14C417.112 77.02 417.719 73.2067 418.152 68.7H421.142C420.882 71.3867 420.752 74.94 420.752 79.36C420.752 81.0067 420.796 83.39 420.882 86.51C421.056 89.5433 421.316 92.7067 421.662 96C417.242 95.8267 412.259 95.74 406.712 95.74C401.166 95.6533 396.226 95.61 391.892 95.61C389.986 95.61 387.516 95.61 384.482 95.61C381.536 95.61 378.329 95.6533 374.862 95.74C371.396 95.74 367.886 95.7833 364.332 95.87C360.779 95.87 357.399 95.9133 354.192 96V93.4C357.139 93.2267 359.349 92.88 360.822 92.36C362.382 91.84 363.422 90.8 363.942 89.24C364.462 87.68 364.722 85.34 364.722 82.22V17.74C364.722 14.5333 364.462 12.1933 363.942 10.72C363.422 9.16 362.382 8.12 360.822 7.6C359.349 6.99333 357.139 6.64666 354.192 6.56V3.96C356.012 4.04666 358.396 4.13333 361.342 4.22C364.289 4.30666 367.452 4.34999 370.832 4.34999C373.866 4.34999 376.856 4.30666 379.802 4.22C382.836 4.13333 385.349 4.04666 387.342 3.96ZM473.388 2.13999C481.622 2.13999 488.815 4.00333 494.968 7.73C501.208 11.4567 506.018 16.83 509.398 23.85C512.865 30.7833 514.598 39.2333 514.598 49.2C514.598 58.9067 512.822 67.4 509.268 74.68C505.802 81.96 500.948 87.6367 494.708 91.71C488.468 95.7833 481.318 97.82 473.258 97.82C465.025 97.82 457.788 95.9567 451.548 92.23C445.395 88.5033 440.585 83.13 437.118 76.11C433.738 69.09 432.048 60.64 432.048 50.76C432.048 41.0533 433.825 32.56 437.378 25.28C440.932 18 445.785 12.3233 451.938 8.25C458.178 4.17666 465.328 2.13999 473.388 2.13999ZM472.868 4.47999C467.235 4.47999 462.338 6.42999 458.178 10.33C454.018 14.23 450.768 19.6033 448.428 26.45C446.175 33.2967 445.048 41.2267 445.048 50.24C445.048 59.4267 446.305 67.4433 448.818 74.29C451.418 81.05 454.885 86.2933 459.218 90.02C463.638 93.66 468.492 95.48 473.778 95.48C479.412 95.48 484.308 93.53 488.468 89.63C492.628 85.73 495.835 80.3567 498.088 73.51C500.428 66.5767 501.598 58.6467 501.598 49.72C501.598 40.4467 500.298 32.43 497.698 25.67C495.185 18.91 491.762 13.71 487.428 10.07C483.095 6.34333 478.242 4.47999 472.868 4.47999Z" fill="white"/>
<path d="M244.402 110.06C249.772 110.06 253.762 111.41 256.372 114.11C258.982 116.78 260.287 120.62 260.287 125.63C260.287 128.9 259.642 131.765 258.352 134.225C257.092 136.655 255.247 138.545 252.817 139.895C250.387 141.245 247.447 141.92 243.997 141.92C243.547 141.92 242.947 141.905 242.197 141.875C241.447 141.845 240.667 141.83 239.857 141.83C239.077 141.8 238.357 141.785 237.697 141.785C236.647 141.785 235.612 141.8 234.592 141.83C233.572 141.83 232.747 141.86 232.117 141.92V141.02C233.137 140.96 233.902 140.84 234.412 140.66C234.952 140.48 235.312 140.12 235.492 139.58C235.672 139.04 235.762 138.23 235.762 137.15V114.83C235.762 113.72 235.672 112.91 235.492 112.4C235.312 111.86 234.952 111.5 234.412 111.32C233.902 111.11 233.137 110.99 232.117 110.96V110.06C232.747 110.09 233.572 110.135 234.592 110.195C235.612 110.225 236.617 110.225 237.607 110.195C238.657 110.165 239.842 110.135 241.162 110.105C242.482 110.075 243.562 110.06 244.402 110.06ZM243.277 110.87C241.897 110.87 240.997 111.125 240.577 111.635C240.157 112.145 239.947 113.18 239.947 114.74V137.24C239.947 138.8 240.157 139.835 240.577 140.345C241.027 140.855 241.942 141.11 243.322 141.11C246.592 141.11 249.127 140.525 250.927 139.355C252.727 138.155 253.987 136.415 254.707 134.135C255.427 131.855 255.787 129.08 255.787 125.81C255.787 122.45 255.382 119.675 254.572 117.485C253.792 115.265 252.487 113.615 250.657 112.535C248.857 111.425 246.397 110.87 243.277 110.87ZM286.696 110.06C286.576 111.11 286.486 112.13 286.426 113.12C286.396 114.11 286.381 114.86 286.381 115.37C286.381 115.91 286.396 116.435 286.426 116.945C286.456 117.425 286.486 117.83 286.516 118.16H285.481C285.301 116.39 285.046 114.995 284.716 113.975C284.386 112.925 283.816 112.19 283.006 111.77C282.226 111.32 281.041 111.095 279.451 111.095H275.716C274.696 111.095 273.916 111.185 273.376 111.365C272.866 111.515 272.521 111.86 272.341 112.4C272.161 112.91 272.071 113.72 272.071 114.83V137.15C272.071 138.23 272.161 139.04 272.341 139.58C272.521 140.12 272.866 140.48 273.376 140.66C273.916 140.81 274.696 140.885 275.716 140.885H279.001C280.891 140.885 282.316 140.63 283.276 140.12C284.266 139.61 284.971 138.785 285.391 137.645C285.841 136.475 286.171 134.9 286.381 132.92H287.416C287.326 133.73 287.281 134.81 287.281 136.16C287.281 136.73 287.296 137.555 287.326 138.635C287.386 139.685 287.476 140.78 287.596 141.92C286.066 141.86 284.341 141.83 282.421 141.83C280.501 141.8 278.791 141.785 277.291 141.785C276.631 141.785 275.776 141.785 274.726 141.785C273.706 141.785 272.596 141.8 271.396 141.83C270.196 141.83 268.981 141.845 267.751 141.875C266.521 141.875 265.351 141.89 264.241 141.92V141.02C265.261 140.96 266.026 140.84 266.536 140.66C267.076 140.48 267.436 140.12 267.616 139.58C267.796 139.04 267.886 138.23 267.886 137.15V114.83C267.886 113.72 267.796 112.91 267.616 112.4C267.436 111.86 267.076 111.5 266.536 111.32C266.026 111.11 265.261 110.99 264.241 110.96V110.06C265.351 110.09 266.521 110.12 267.751 110.15C268.981 110.15 270.196 110.165 271.396 110.195C272.596 110.195 273.706 110.195 274.726 110.195C275.776 110.195 276.631 110.195 277.291 110.195C278.671 110.195 280.231 110.195 281.971 110.195C283.741 110.165 285.316 110.12 286.696 110.06ZM278.956 125.45C278.956 125.45 278.956 125.6 278.956 125.9C278.956 126.2 278.956 126.35 278.956 126.35H270.721C270.721 126.35 270.721 126.2 270.721 125.9C270.721 125.6 270.721 125.45 270.721 125.45H278.956ZM280.261 119.51C280.141 121.22 280.081 122.525 280.081 123.425C280.111 124.325 280.126 125.15 280.126 125.9C280.126 126.65 280.141 127.475 280.171 128.375C280.201 129.275 280.276 130.58 280.396 132.29H279.361C279.241 131.33 279.091 130.4 278.911 129.5C278.761 128.57 278.401 127.82 277.831 127.25C277.291 126.65 276.361 126.35 275.041 126.35V125.45C276.031 125.45 276.781 125.255 277.291 124.865C277.831 124.445 278.221 123.92 278.461 123.29C278.701 122.66 278.866 122.015 278.956 121.355C279.046 120.665 279.136 120.05 279.226 119.51H280.261Z" fill="white"/>
<path d="M61.8963 157.028V161.608C56.7056 161.76 52.7363 162.371 49.9883 163.44C47.393 164.356 45.6373 166.188 44.7213 168.936C43.8053 171.531 43.3473 175.653 43.3473 181.302V294.886C43.3473 300.382 43.8053 304.504 44.7213 307.252C45.6373 310 47.393 311.832 49.9883 312.748C52.7363 313.511 56.7056 313.893 61.8963 313.893H78.6133C85.7886 313.893 91.59 313.129 96.0173 311.603C100.597 310.076 104.185 307.71 106.78 304.504C109.528 301.145 111.589 296.718 112.963 291.222C114.337 285.726 115.406 279.008 116.169 271.07H121.436C120.978 275.802 120.749 282.062 120.749 289.848C120.749 292.748 120.826 296.947 120.978 302.443C121.284 307.786 121.742 313.358 122.352 319.16C114.566 318.854 105.788 318.702 96.0173 318.702C86.2466 318.549 77.5446 318.473 69.9113 318.473C66.5526 318.473 62.2016 318.473 56.8583 318.473C51.6676 318.473 46.019 318.549 39.9123 318.702C33.8056 318.702 27.6226 318.778 21.3633 318.931C15.104 318.931 9.14997 319.007 3.5013 319.16V314.58C8.69197 314.274 12.585 313.664 15.1803 312.748C17.9283 311.832 19.7603 310 20.6763 307.252C21.5923 304.504 22.0503 300.382 22.0503 294.886V181.302C22.0503 175.653 21.5923 171.531 20.6763 168.936C19.7603 166.188 17.9283 164.356 15.1803 163.44C12.585 162.371 8.69197 161.76 3.5013 161.608V157.028C6.7073 157.18 10.9056 157.333 16.0963 157.486C21.287 157.638 26.8593 157.715 32.8133 157.715C38.1566 157.715 43.4236 157.638 48.6143 157.486C53.9576 157.333 58.385 157.18 61.8963 157.028ZM213.469 153.822C227.973 153.822 240.644 157.104 251.483 163.669C262.475 170.233 270.948 179.699 276.902 192.065C283.009 204.278 286.062 219.163 286.062 236.72C286.062 253.818 282.933 268.78 276.673 281.604C270.567 294.428 262.017 304.427 251.025 311.603C240.033 318.778 227.438 322.366 213.24 322.366C198.737 322.366 185.989 319.083 174.997 312.519C164.158 305.954 155.685 296.489 149.578 284.123C143.624 271.757 140.647 256.872 140.647 239.468C140.647 222.369 143.777 207.408 150.036 194.584C156.296 181.76 164.845 171.76 175.684 164.585C186.676 157.409 199.271 153.822 213.469 153.822ZM212.553 157.944C202.63 157.944 194.004 161.379 186.676 168.249C179.348 175.119 173.623 184.584 169.501 196.645C165.532 208.705 163.547 222.674 163.547 238.552C163.547 254.734 165.761 268.856 170.188 280.917C174.768 292.825 180.875 302.061 188.508 308.626C196.294 315.038 204.844 318.244 214.156 318.244C224.08 318.244 232.705 314.809 240.033 307.939C247.361 301.069 253.01 291.603 256.979 279.543C261.101 267.329 263.162 253.36 263.162 237.636C263.162 221.3 260.872 207.179 256.292 195.271C251.865 183.363 245.835 174.203 238.201 167.791C230.568 161.226 222.019 157.944 212.553 157.944ZM437.293 157.028V161.608C432.561 162.218 427.981 163.745 423.553 166.188C419.126 168.63 414.699 172.676 410.271 178.325L366.075 234.888L371.112 223.667L426.073 300.611C428.668 304.427 431.492 307.404 434.546 309.542C437.599 311.679 441.492 313.358 446.225 314.58V319.16C442.561 318.854 437.981 318.702 432.485 318.702C427.141 318.549 422.561 318.473 418.745 318.473C416.149 318.473 412.943 318.549 409.126 318.702C405.463 318.702 400.806 318.854 395.158 319.16V314.58C400.348 314.274 403.631 313.358 405.005 311.832C406.379 310.305 405.844 307.786 403.401 304.275L369.967 253.895C366.914 249.162 364.166 245.651 361.724 243.361C359.433 240.918 356.991 239.315 354.396 238.552C351.953 237.788 348.823 237.33 345.006 237.178V232.598C351.418 232.445 356.762 231.224 361.036 228.934C365.464 226.491 369.128 223.438 372.028 219.774L394.013 191.836C399.051 185.424 402.486 180.004 404.317 175.577C406.149 171.149 406.073 167.791 404.089 165.501C402.104 163.058 397.906 161.76 391.494 161.608V157.028C394.394 157.18 397.371 157.333 400.425 157.486C403.478 157.486 406.455 157.562 409.356 157.715C412.409 157.715 415.233 157.715 417.829 157.715C421.798 157.715 425.462 157.638 428.82 157.486C432.179 157.333 435.004 157.18 437.293 157.028ZM364.472 157.028V161.608C359.281 161.76 355.311 162.371 352.563 163.44C349.968 164.356 348.212 166.188 347.297 168.936C346.38 171.531 345.922 175.653 345.922 181.302V294.886C345.922 300.382 346.38 304.504 347.297 307.252C348.212 310 349.968 311.832 352.563 312.748C355.311 313.664 359.281 314.274 364.472 314.58V319.16C360.96 318.854 356.533 318.702 351.189 318.702C345.999 318.549 340.732 318.473 335.388 318.473C329.434 318.473 323.862 318.549 318.671 318.702C313.481 318.702 309.282 318.854 306.076 319.16V314.58C311.267 314.274 315.16 313.664 317.755 312.748C320.503 311.832 322.335 310 323.251 307.252C324.167 304.504 324.625 300.382 324.625 294.886V181.302C324.625 175.653 324.167 171.531 323.251 168.936C322.335 166.188 320.503 164.356 317.755 163.44C315.16 162.371 311.267 161.76 306.076 161.608V157.028C309.282 157.18 313.481 157.333 318.671 157.486C323.862 157.638 329.434 157.715 335.388 157.715C340.732 157.715 345.999 157.638 351.189 157.486C356.533 157.333 360.96 157.18 364.472 157.028ZM514.529 157.028V161.608C509.338 161.76 505.369 162.371 502.621 163.44C500.026 164.356 498.27 166.188 497.354 168.936C496.438 171.531 495.98 175.653 495.98 181.302V294.886C495.98 300.382 496.438 304.504 497.354 307.252C498.27 310 500.026 311.832 502.621 312.748C505.369 313.664 509.338 314.274 514.529 314.58V319.16C511.018 318.854 506.59 318.702 501.247 318.702C496.056 318.549 490.789 318.473 485.446 318.473C479.492 318.473 473.92 318.549 468.729 318.702C463.538 318.702 459.34 318.854 456.134 319.16V314.58C461.325 314.274 465.218 313.664 467.813 312.748C470.561 311.832 472.393 310 473.309 307.252C474.225 304.504 474.683 300.382 474.683 294.886V181.302C474.683 175.653 474.225 171.531 473.309 168.936C472.393 166.188 470.561 164.356 467.813 163.44C465.218 162.371 461.325 161.76 456.134 161.608V157.028C459.34 157.18 463.538 157.333 468.729 157.486C473.92 157.638 479.492 157.715 485.446 157.715C490.789 157.715 496.056 157.638 501.247 157.486C506.59 157.333 511.018 157.18 514.529 157.028Z" fill="white"/>
<path d="M4 125.856H230.485C230.77 125.856 231 126.087 231 126.371V126.371C231 126.655 230.77 126.886 230.485 126.886H4V125.856Z" fill="white"/>
<path d="M288 126.324C288 126.066 288.209 125.856 288.468 125.856H515V126.886H288.561C288.251 126.886 288 126.634 288 126.324V126.324Z" fill="white"/>
</g>
<defs>
<clipPath id="clip0_92_12">
<rect width="520" height="324" fill="white"/>
</clipPath>
</defs>
</svg>
